<?xml version="1.0" ?><!DOCTYPE svg  PUBLIC '-//W3C//DTD SVG 1.1//EN'  'http://www.w3.org/Graphics/SVG/1.1/DTD/svg11.dtd'><svg enable-background="new 0 0 50 50" height="50px" id="Layer_1" version="1.1" viewBox="0 0 50 50" width="50px" xml:space="preserve" xmlns="http://www.w3.org/2000/svg" xmlns:xlink="http://www.w3.org/1999/xlink"><path d="M40.723,19.984h-5.217l-5.062-5.067c0-5.063,0.36-6.671-1.45-8.461c-3.058-3.097-8.44-0.931-8.44,3.491v4.965l-5.067,5.072  h-5.21c-2.739,0-4.946,2.218-4.946,4.956c0,2.727,2.219,4.946,4.946,4.946h5.206l5.071,5.071c0,5.221-0.357,6.801,1.451,8.588  c3.067,3.103,8.439,0.924,8.439-3.492v-5.096l5.072-5.071c5.313,0,6.887,0.369,8.71-1.452  C47.308,25.349,45.135,19.984,40.723,19.984z M34.445,19.984h-2.757l-3.929-3.928l-2.26-2.26l-1.508,1.508v-2.765l1.508-1.509  L34.445,19.984z M29.694,19.053v0.932H27.76v-2.866L29.694,19.053z M25.5,41.562c-1.772,0-1.508-1.924-1.508-3.167l1.508,1.508  l1.508-1.508C27.008,39.501,27.313,41.562,25.5,41.562z M27.008,33.503L25.5,35.011l-1.508-1.508v-3.617h3.016V33.503z   M27.008,26.448h-3.016V23.42h3.016V26.448z M25.5,8.439c1.771,0,1.508,1.947,1.508,3.036L25.5,9.967l-1.508,1.508  C23.992,10.392,23.727,8.439,25.5,8.439z M23.992,16.366l1.508-1.508l1.508,1.508v3.618h-3.016V16.366z M21.306,22.669  c0-8.23,0-3.077,0-12.722c0-3.749,4.563-5.588,7.157-2.96c1.554,1.537,1.231,2.949,1.231,7.174l-1.935-1.934V9.947  c0-2.985-4.52-2.986-4.52,0c0,5.747,0,10.142,0,16.501h-1.935V22.669z M16.55,19.984l4.004-4.006v2.761l-6.188,6.202l1.508,1.508  h-2.765L11.6,24.94c1.309-1.309,2.017-2.017,2.382-2.382c0.233-0.233,0.329-0.329,0.343-0.343c0.35-0.35,1.016-1.016,2.231-2.231  H16.55z M17.699,22.67l1.935-1.934h0.921v1.934H17.699z M20.554,23.421v3.027h-3.618l-1.508-1.508l1.518-1.519H20.554z   M12.046,26.448c-1.374,0-3.277,0.269-3.277-1.508c0-1.785,1.907-1.519,3.285-1.519l-1.517,1.519L12.046,26.448z M10.277,29.134  c-3.727,0-5.59-4.514-2.972-7.166c1.545-1.545,2.871-1.232,7.431-1.232l-1.932,1.934h-2.527c-2.981,0-2.993,4.53,0,4.53h2.521  c13.149,0,0.994,0,14.21,0v1.935C23.542,29.134,13.716,29.134,10.277,29.134z M23.24,29.886v2.865l-1.935-1.934v-0.932H23.24z   M16.545,29.886h2.766l1.243,1.243l4.946,4.945l1.508-1.509v2.767L25.5,38.841C20.416,33.756,21.625,34.965,16.545,29.886z   M29.694,40.053c0,3.742-4.553,5.594-7.157,2.961c-1.527-1.511-1.232-2.82-1.232-7.305l1.935,1.935v2.409c0,2.986,4.52,2.987,4.52,0  c0-6.244,0-10.358,0-16.631h1.935C29.694,36.461,29.694,33.237,29.694,40.053z M33.317,27.2l-1.938,1.934h-0.935V27.2  C30.805,27.2,32.96,27.2,33.317,27.2z M30.446,26.448V23.42h3.617l1.52,1.52l-1.513,1.508H30.446z M34.455,29.886l-4.009,4.009  V31.13l1.245-1.244h0.008l2.687-2.686l2.26-2.26l-1.519-1.519h2.756l1.519,1.519l-1.509,1.508L34.455,29.886z M38.944,23.421  c1.246,0,3.288-0.307,3.288,1.519c0,1.773-1.909,1.508-3.279,1.508l1.512-1.508L38.944,23.421z M43.694,27.901  c-1.541,1.542-2.856,1.232-7.426,1.232l1.935-1.934h2.521c2.991,0,2.98-4.531,0-4.531c-8.349,0-8.044,0-16.732,0v-1.934  c6.147,0,10.665,0,16.732,0C44.465,20.736,46.308,25.292,43.694,27.901z"/></svg>